# xmcd CD database file
#
# Track frame offsets:
#	150
#	23830
#	49053
#	80139
#	97767
#	128806
#	142850
#	168543
#	202182
#
# Disc length: 2995 seconds
#
# Revision: 0
# Processed by: cddbd v1.5.1PL0 Copyright (c) Steve Scherf et al.
# Submitted via: CDex 1.51
#
DISCID=750bb109
DTITLE=George Benson - The Instrumentals
DYEAR=1900
DGENRE=Jazz
TTITLE0=My heart is dancing
TTITLE1=Breezin´
TTITLE2=Mimosa
TTITLE3=Being with you
TTITLE4=Affirmation
TTITLE5=Tenderly
TTITLE6=We all remember Wes
TTITLE7=Weekend in LA
TTITLE8=That´s right
EXTD=
EXTT0=
EXTT1=
EXTT2=
EXTT3=
EXTT4=
EXTT5=
EXTT6=
EXTT7=
EXTT8=
PLAYORDER=
